<mxfile host="app.diagrams.net" modified="2023-04-23T16:22:46.388Z" agent="Mozilla/5.0 (Windows NT 10.0; Win64; x64) AppleWebKit/537.36 (KHTML, like Gecko) Chrome/112.0.0.0 Safari/537.36 Edg/112.0.1722.58" etag="4e1lrHxgGTrDMI4hGjIP" version="21.2.1" type="device">
  <diagram name="Страница 1" id="oEb-39gIw6oo85KOBmgq">
    <mxGraphModel dx="932" dy="621" grid="1" gridSize="10" guides="1" tooltips="1" connect="1" arrows="1" fold="1" page="1" pageScale="1" pageWidth="827" pageHeight="1169" math="0" shadow="0">
      <root>
        <mxCell id="0" />
        <mxCell id="1" parent="0" />
        <mxCell id="UXdgKZS49ERkQQznfdC--1" value="Студент" style="rounded=0;whiteSpace=wrap;html=1;" vertex="1" parent="1">
          <mxGeometry x="80" y="140" width="120" height="20" as="geometry" />
        </mxCell>
        <mxCell id="UXdgKZS49ERkQQznfdC--7" style="edgeStyle=orthogonalEdgeStyle;rounded=0;orthogonalLoop=1;jettySize=auto;html=1;exitX=1;exitY=0.25;exitDx=0;exitDy=0;entryX=0;entryY=0.34;entryDx=0;entryDy=0;entryPerimeter=0;endArrow=ERmany;endFill=0;" edge="1" parent="1" source="UXdgKZS49ERkQQznfdC--2" target="UXdgKZS49ERkQQznfdC--6">
          <mxGeometry relative="1" as="geometry" />
        </mxCell>
        <mxCell id="UXdgKZS49ERkQQznfdC--2" value="&lt;div style=&quot;&quot;&gt;&lt;span style=&quot;background-color: initial;&quot;&gt;Id&lt;/span&gt;&lt;/div&gt;&lt;div style=&quot;&quot;&gt;&lt;span style=&quot;background-color: initial;&quot;&gt;Имя&lt;/span&gt;&lt;/div&gt;&lt;div style=&quot;&quot;&gt;&lt;span style=&quot;background-color: initial;&quot;&gt;Фамилия&lt;/span&gt;&lt;/div&gt;&lt;div style=&quot;&quot;&gt;&lt;span style=&quot;background-color: initial;&quot;&gt;Отчество&lt;/span&gt;&lt;/div&gt;&lt;div style=&quot;&quot;&gt;&lt;span style=&quot;background-color: initial;&quot;&gt;Курс&lt;/span&gt;&lt;/div&gt;" style="rounded=0;whiteSpace=wrap;html=1;align=left;" vertex="1" parent="1">
          <mxGeometry x="80" y="160" width="120" height="90" as="geometry" />
        </mxCell>
        <mxCell id="UXdgKZS49ERkQQznfdC--3" value="Направление" style="rounded=0;whiteSpace=wrap;html=1;" vertex="1" parent="1">
          <mxGeometry x="480" y="140" width="120" height="20" as="geometry" />
        </mxCell>
        <mxCell id="UXdgKZS49ERkQQznfdC--8" style="edgeStyle=orthogonalEdgeStyle;rounded=0;orthogonalLoop=1;jettySize=auto;html=1;exitX=0;exitY=0.25;exitDx=0;exitDy=0;entryX=1;entryY=0.5;entryDx=0;entryDy=0;endArrow=ERmany;endFill=0;" edge="1" parent="1" source="UXdgKZS49ERkQQznfdC--4" target="UXdgKZS49ERkQQznfdC--6">
          <mxGeometry relative="1" as="geometry" />
        </mxCell>
        <mxCell id="UXdgKZS49ERkQQznfdC--4" value="Id&lt;br&gt;Название&lt;br&gt;" style="rounded=0;whiteSpace=wrap;html=1;align=left;" vertex="1" parent="1">
          <mxGeometry x="480" y="160" width="120" height="90" as="geometry" />
        </mxCell>
        <mxCell id="UXdgKZS49ERkQQznfdC--5" value="Группа" style="rounded=0;whiteSpace=wrap;html=1;" vertex="1" parent="1">
          <mxGeometry x="280" y="140" width="120" height="20" as="geometry" />
        </mxCell>
        <mxCell id="UXdgKZS49ERkQQznfdC--6" value="&lt;div style=&quot;&quot;&gt;&lt;span style=&quot;background-color: initial;&quot;&gt;Id студента&lt;/span&gt;&lt;/div&gt;&lt;div style=&quot;&quot;&gt;Id группы&lt;/div&gt;&lt;div style=&quot;&quot;&gt;кол-во человек&lt;/div&gt;" style="rounded=0;whiteSpace=wrap;html=1;align=left;" vertex="1" parent="1">
          <mxGeometry x="280" y="160" width="120" height="90" as="geometry" />
        </mxCell>
      </root>
    </mxGraphModel>
  </diagram>
</mxfile>
